<svg preserveAspectRatio="xMidYMid meet" data-bbox="0 0 251 251" viewBox="0 0 251 251" height="251" width="251" xmlns="http://www.w3.org/2000/svg" data-type="ugc" role="presentation" aria-hidden="true" aria-labelledby="svgcid-z9m2jy-drind9"><title id="svgcid-z9m2jy-drind9"></title>
    <g>
        <g>
            <path stroke-width="7" stroke-linejoin="round" stroke-linecap="round" stroke="#19827b" fill="none" d="M189.803 139.352a4.672 4.672 0 1 1-9.344 0 4.672 4.672 0 0 1 9.344 0z"></path>
            <path stroke-width="7" stroke-linejoin="round" stroke-linecap="round" stroke="#19827b" fill="none" d="M189.803 180.466a4.672 4.672 0 1 1-9.344 0 4.672 4.672 0 0 1 9.344 0z"></path>
            <path stroke-width="7" stroke-linejoin="round" stroke-linecap="round" stroke="#19827b" fill="none" d="M180.459 139.352H97.297"></path>
            <path stroke-width="7" stroke-linejoin="round" stroke-linecap="round" stroke="#19827b" fill="none" d="M115.996 161.954h50.546l15.118 15.118"></path>
            <path stroke-width="7" stroke-linejoin="round" stroke-linecap="round" stroke="#19827b" fill="none" d="M97.297 139.352c0 2.58-1.883 4.672-4.205 4.672s-4.205-2.092-4.205-4.672c0-2.58 1.883-4.672 4.205-4.672s4.205 2.092 4.205 4.672z"></path>
            <path stroke-width="7" stroke-linejoin="round" stroke-linecap="round" stroke="#19827b" fill="none" d="M115.985 161.778a4.672 4.672 0 1 1-9.344 0 4.672 4.672 0 0 1 9.344 0z"></path>
            <path stroke-width="7" stroke-linejoin="round" stroke-linecap="round" stroke="#19827b" fill="none" d="M161.771 120.664v-23.36"></path>
            <path stroke-width="7" stroke-linejoin="round" stroke-linecap="round" stroke="#19827b" fill="none" d="M125.186 60.862H70.045a9.19 9.19 0 0 0-9.19 9.19v110.282a9.19 9.19 0 0 0 9.19 9.19h82.71a9.19 9.19 0 0 0 9.19-9.19"></path>
            <path stroke-width="7" stroke-linejoin="round" stroke-linecap="round" stroke="#19827b" fill="none" d="M79.543 84.222h27.098"></path>
            <path stroke-width="7" stroke-linejoin="round" stroke-linecap="round" stroke="#19827b" fill="none" d="M79.543 115.992h59.802"></path>
            <path stroke-width="7" stroke-linejoin="round" stroke-linecap="round" stroke="#19827b" fill="none" d="M161.947 97.623h-27.571a9.19 9.19 0 0 1-9.19-9.191v-27.57Z"></path>
        </g>
        <g stroke-width="7" stroke="#19827b">
            <path d="M251 125.5c0 69.312-56.188 125.5-125.5 125.5S0 194.812 0 125.5 56.188 0 125.5 0 251 56.188 251 125.5z" fill="none" stroke="none"></path>
            <path d="M247.5 125.5c0 67.379-54.621 122-122 122-67.379 0-122-54.621-122-122 0-67.379 54.621-122 122-122 67.379 0 122 54.621 122 122z" fill="none"></path>
        </g>
    </g>
</svg>
